{"accessors" : [{"bufferView" : 0, "byteOffset" : 0, "componentType" : 5123, "count" : 276, "type" : "SCALAR", "max" : [107], "min" : [0]}, {"bufferView" : 1, "byteOffset" : 0, "componentType" : 5126, "count" : 108, "type" : "VEC3", "max" : [41.0000190734863, 1.00613701343536, 65], "min" : [-38.7426910400391, -1.00613701343536, -74]}, {"bufferView" : 1, "byteOffset" : 12, "componentType" : 5126, "count" : 108, "type" : "VEC3", "max" : [1.00000417232513, 1.00000441074371, 1.00000357627869], "min" : [-1.00000405311584, -1.00000441074371, -1.00000357627869]}, {"bufferView" : 1, "byteOffset" : 24, "componentType" : 5126, "count" : 108, "type" : "VEC2", "max" : [0.953314363956451, 0.874406158924103], "min" : [0.0435121059417725, 0.120555937290192]}], "asset" : {"generator" : "Aspose.3D 20.2.1", "version" : "2.0"}, "buffers" : [{"uri" : "buffer.bin", "byteLength" : 1254184}], "bufferViews" : [{"buffer" : 0, "byteOffset" : 0, "byteLength" : 552, "target" : 34963}, {"buffer" : 0, "byteOffset" : 556, "byteLength" : 3456, "byteStride" : 32, "target" : 34962}, {"buffer" : 0, "byteOffset" : 4016, "byteLength" : 1250165}], "images" : [{"mimeType" : "image/png", "bufferView" : 2}], "materials" : [{"pbrMetallicRoughness" : {"baseColorFactor" : [1, 1, 1, 1], "baseColorTexture" : {"index" : 0, "texCoord" : 0}, "metallicFactor" : 0, "roughnessFactor" : 0.552786409854889}, "emissiveFactor" : [0, 0, 0], "alphaMode" : "OPAQUE", "doubleSided" : true}], "meshes" : [{"primitives" : [{"attributes" : {"POSITION" : 1, "NORMAL" : 2, "TEXCOORD_0" : 3}, "indices" : 0, "material" : 0, "mode" : 4}]}], "nodes" : [{"matrix" : [0.00999999977648258, 0, 0, 0, 0, -1.34358853481896E-09, 0.0099999994341971, 0, 0, -0.0099999994341971, -1.34358853481896E-09, 0, 0, 0, 0, 1], "mesh" : 0, "name" : "Card_v3"}], "samplers" : [{"magFilter" : 9729, "minFilter" : 9729, "wrapS" : 10497, "wrapT" : 10497}], "scene" : 0, "scenes" : [{"nodes" : [0]}], "textures" : [{"sampler" : 0, "source" : 0}]}